<svg width="20" height="14" viewBox="0 0 20 14" fill="none" xmlns="http://www.w3.org/2000/svg">
<path d="M17.9285 5.88406L18.6987 6.72233H17.5603H0.714239C0.671812 6.72233 0.621553 6.7403 0.577448 6.78832C0.532032 6.83777 0.5 6.91328 0.5 7C0.5 7.08672 0.532034 7.16223 0.577448 7.21168C0.621552 7.2597 0.67181 7.27767 0.714239 7.27767H17.5603H18.6987L17.9285 8.11594L13.4331 13.009C13.4331 13.009 13.4331 13.009 13.4331 13.009C13.4109 13.0332 13.3912 13.0642 13.3772 13.1012C13.3631 13.1382 13.3554 13.1791 13.3554 13.2213C13.3554 13.2636 13.3631 13.3045 13.3772 13.3415C13.3913 13.3785 13.4109 13.4095 13.4331 13.4337C13.4553 13.4578 13.4793 13.4745 13.5024 13.4849C13.5255 13.4953 13.5485 13.5 13.5706 13.5C13.5926 13.5 13.6156 13.4953 13.6387 13.4849C13.6619 13.4745 13.6858 13.4578 13.708 13.4337L19.4219 7.21237L19.4223 7.21191C19.4445 7.1878 19.4642 7.1569 19.4782 7.11999C19.4923 7.08305 19.5 7.04216 19.5 7C19.5 6.95784 19.4923 6.91695 19.4782 6.88001C19.4642 6.8431 19.4445 6.8122 19.4223 6.78809L19.4219 6.78763L13.708 0.566278C13.6858 0.542158 13.6619 0.525522 13.6387 0.515062C13.6156 0.504665 13.5926 0.5 13.5706 0.5C13.5485 0.5 13.5255 0.504665 13.5024 0.515062C13.4793 0.525522 13.4553 0.542158 13.4331 0.566278C13.4109 0.590484 13.3913 0.621477 13.3772 0.658458C13.3631 0.695472 13.3554 0.736428 13.3554 0.778651C13.3554 0.820875 13.3631 0.861831 13.3772 0.898844C13.3912 0.935795 13.4109 0.966768 13.4331 0.990966C13.4331 0.990985 13.4331 0.991005 13.4331 0.991024L17.9285 5.88406Z" stroke="#F6C927"/>
</svg>
